<?xml version="1.0" encoding="utf-8"?>
<!-- Generator: Adobe Illustrator 25.0.1, SVG Export Plug-In . SVG Version: 6.00 Build 0)  -->
<svg version="1.1" id="Layer_1" xmlns="http://www.w3.org/2000/svg" xmlns:xlink="http://www.w3.org/1999/xlink" x="0px" y="0px"
	 viewBox="0 0 120 120" style="enable-background:new 0 0 120 120;" xml:space="preserve">
<style type="text/css">
	.st0{fill:url(#SVGID_1_);}
	.st1{fill:url(#SVGID_2_);}
	.st2{fill:url(#SVGID_3_);}
	.st3{fill:url(#SVGID_4_);}
</style>
<g id="SvgjsG6897" transform="matrix(2.068999420457185,0,0,2.068999420457185,108.88134449282111,-3.209018099155942)">
	<g>
		
			<linearGradient id="SVGID_1_" gradientUnits="userSpaceOnUse" x1="-481.2266" y1="284.916" x2="-480.2934" y2="284.916" gradientTransform="matrix(62.5466 0 0 -34.0035 30075.9492 9708.4131)">
			<stop  offset="0" style="stop-color:#FBB040"/>
			<stop  offset="1" style="stop-color:#F9ED32"/>
		</linearGradient>
		<path class="st0" d="M5.1,14.9c-5.8-2.5-11.4-3.2-17.1-0.8c-5.2,2.3-8.5,6.4-11.1,11.3c4.1,1.9,8.3,2.7,12.6,2.4
			c3.5-0.2,6.6-1.5,8.9-4.2C0.7,20.9,2.8,17.9,5.1,14.9z"/>
		
			<linearGradient id="SVGID_2_" gradientUnits="userSpaceOnUse" x1="-479.3901" y1="286.787" x2="-478.4569" y2="286.787" gradientTransform="matrix(48.3834 0 0 -46.9223 23144.2832 13470.749)">
			<stop  offset="0" style="stop-color:#FBB040"/>
			<stop  offset="1" style="stop-color:#F9ED32"/>
		</linearGradient>
		<path class="st1" d="M-50.3,3.5c0.1,5.8,1.6,10.8,5.5,14.9c4.2,4.4,9.5,5.9,15.4,6.3c-4.3-3.9-8.5-7.8-12.1-12.3
			c2.2,1.9,4.3,4,6.4,5.9c2.2,1.9,4.4,3.8,6.6,5.7c0.1-0.6,0.1-1,0-1.4c-0.2-3.1-1-6.1-2.4-8.9c-1.7-3.6-4.2-6.6-8.2-7.7
			C-42.7,4.9-46.4,4.3-50.3,3.5z"/>
		
			<linearGradient id="SVGID_3_" gradientUnits="userSpaceOnUse" x1="-446.9557" y1="282.9165" x2="-446.0225" y2="282.9165" gradientTransform="matrix(9.5096 0 0 -26.2305 4221.2285 7450.3276)">
			<stop  offset="0" style="stop-color:#FBB040"/>
			<stop  offset="1" style="stop-color:#F9ED32"/>
		</linearGradient>
		<path class="st2" d="M-24.9,24.8c-0.1,0.5-0.3,1-0.5,1.5c-1,2.9-2.1,5.5-1.9,8.6c-0.6,0.1-1.3,0.2-1.9,0.3c0-0.4,0-0.8,0-1.2
			c0.1-2.7,1.7-7.9,2.8-9.8l0.1-0.1c0.1-0.2,0.2-0.4,0.4-0.5c0.3-0.3,0.6-0.3,0.8-0.1C-24.8,23.8-24.8,24.5-24.9,24.8z"/>
		
			<linearGradient id="SVGID_4_" gradientUnits="userSpaceOnUse" x1="-479.2552" y1="286.8932" x2="-478.322" y2="286.8932" gradientTransform="matrix(47.4609 0 0 -47.4609 22708.9355 13663.3447)">
			<stop  offset="0" style="stop-color:#FBB040"/>
			<stop  offset="1" style="stop-color:#F9ED32"/>
		</linearGradient>
		<path class="st3" d="M-26.2,36.4c-5.9,0-10.7,4.8-10.7,10.7s4.8,10.7,10.7,10.7c5.9,0,10.7-4.8,10.7-10.7S-20.3,36.4-26.2,36.4z
			 M-27.4,40.5L-27.4,40.5L-27.4,40.5L-27.4,40.5z M-21.8,50.8c-0.2,1.4-1.1,2.4-2.6,2.8c-0.2,0.1-0.4,0.1-0.6,0.2l-0.1,0
			c0,0,0,0,0,0h-0.2v1.7H-27v-1.7l-0.1,0c-2.7-0.7-3.8-2-3.6-4.1l0-0.2h2.7l0.1,0.6c0.1,0.8,0.6,1.3,1.4,1.4c0.1,0,0.2,0,0.3,0
			l0.2,0c0.8,0,1.2-0.5,1.3-0.9c0.2-0.7,0-1.4-0.5-1.7c-0.3-0.2-0.6-0.3-1-0.5c-0.2-0.1-0.3-0.1-0.5-0.2l0,0
			c-0.2-0.1-0.5-0.2-0.7-0.3c-0.5-0.2-1.1-0.5-1.6-0.9c-1-0.7-1.5-1.9-1.4-3.1c0.1-1.3,0.8-2.4,1.9-2.9c0.3-0.2,0.7-0.3,1.1-0.4
			l0.5-0.2v-1.8h1.8v1.9l0.1,0c1.3,0.3,2.2,0.9,2.7,1.8c0.4,0.6,0.6,1.5,0.5,2.2l0,0.2h-2.7l-0.1-0.4c0-0.3-0.1-0.5-0.1-0.6
			c-0.2-0.6-0.7-0.9-1.3-0.9c-0.9,0-1.1,0.4-1.3,0.8c-0.2,0.7-0.1,1.4,0.4,1.7c0.3,0.2,0.7,0.4,1.1,0.6l0.1,0
			c0.1,0.1,0.3,0.1,0.4,0.2c0.2,0.1,0.5,0.2,0.7,0.3l0.1,0.1c0.4,0.2,0.8,0.4,1.2,0.6C-22.1,47.9-21.5,49.2-21.8,50.8z"/>
	</g>
</g>
</svg>
